<svg xmlns="http://www.w3.org/2000/svg" width="1224" height="514" viewBox="0 0 1224 514">
  <g id="Sem" transform="translate(-348 -2626)">
    <g id="Polygon_7" data-name="Polygon 7" transform="translate(654 3140) rotate(-180)" fill="#366ea2" opacity="0.597">
      <path d="M 216.9849395751953 253.8110961914062 C 215.23583984375 253.8110961914062 213.4474945068359 253.6961364746094 211.6691284179688 253.4694061279297 L 158.1220092773438 246.6425018310547 C 156.4294891357422 246.4267120361328 154.7061920166016 246.3172912597656 152.9999847412109 246.3172912597656 C 151.2937774658203 246.3172912597656 149.5704803466797 246.4267120361328 147.8779907226562 246.6424713134766 L 94.33084106445312 253.4694061279297 C 92.55242919921875 253.6961517333984 90.76233673095703 253.8110961914062 89.01027679443359 253.8110961914062 C 85.13095855712891 253.8110961914062 81.32318878173828 253.2530670166016 77.69277954101562 252.1524658203125 C 74.22163391113281 251.1001434326172 70.91236877441406 249.5532073974609 67.85689544677734 247.5545349121094 C 61.94445419311523 243.6870880126953 57.12660217285156 238.2377014160156 53.92410278320312 231.7955322265625 C 50.74024963378906 225.3907318115234 49.32225036621094 218.3231506347656 49.82345581054688 211.3567657470703 C 50.08563232421875 207.7129669189453 50.87178039550781 204.1242370605469 52.16004180908203 200.6902313232422 C 53.51277923583984 197.0844421386719 55.42557144165039 193.6359100341797 57.84536743164062 190.4405059814453 L 90.66712951660156 147.09765625 C 92.72392272949219 144.3815612792969 94.43304443359375 141.4105377197266 95.74695587158203 138.26708984375 L 116.5556030273438 88.48500061035156 C 118.1985168457031 84.55450439453125 120.3726043701172 80.9813232421875 123.0174865722656 77.86473846435547 C 125.5302505493164 74.90376281738281 128.4669494628906 72.35350036621094 131.7459564208984 70.28482818603516 C 138.0364837646484 66.31620788574219 145.385986328125 64.21852874755859 152.9999542236328 64.21852874755859 C 160.6139221191406 64.21852874755859 167.9634246826172 66.31620788574219 174.2539215087891 70.28479766845703 C 177.5329284667969 72.35346984863281 180.4696044921875 74.90373992919922 182.9823913574219 77.86470794677734 C 185.6272430419922 80.98129272460938 187.8013305664062 84.55447387695312 189.4442749023438 88.48497009277344 L 210.2529602050781 138.26708984375 C 211.5668334960938 141.4104156494141 213.2759246826172 144.3814392089844 215.3327789306641 147.0976715087891 L 248.1545715332031 190.4405059814453 C 250.5740203857422 193.6354675292969 252.4865417480469 197.0834655761719 253.8390655517578 200.6887664794922 C 255.1271667480469 204.1222991943359 255.9131927490234 207.7105560302734 256.1753234863281 211.3538818359375 C 256.6764526367188 218.3192596435547 255.2587432861328 225.3861846923828 252.0754547119141 231.7906494140625 C 248.8731384277344 238.2334442138672 244.0552520751953 243.68359375 238.1427154541016 247.5519409179688 C 235.0872497558594 249.551025390625 231.7779846191406 251.0984191894531 228.3068389892578 252.1511840820312 C 224.6764831542969 253.2522125244141 220.8688049316406 253.8106842041016 216.9896392822266 253.8110961914062 C 216.9881286621094 253.8110961914062 216.9864349365234 253.8110961914062 216.9849395751953 253.8110961914062 Z" stroke="none"/>
      <path d="M 152.9999542236328 64.71852111816406 C 145.4805450439453 64.71852111816406 138.2232818603516 66.78955078125 132.0127563476562 70.70765686035156 C 128.7767791748047 72.74922180175781 125.8785705566406 75.26605224609375 123.3987274169922 78.18821716308594 C 120.7871551513672 81.26560974121094 118.6400146484375 84.79481506347656 117.0169525146484 88.67781066894531 L 96.20828247070312 138.4598999023438 C 94.87803649902344 141.6422882080078 93.14784240722656 144.6499938964844 91.06571960449219 147.3995208740234 L 58.24395751953125 190.7423400878906 C 55.85336303710938 193.8992614746094 53.96392822265625 197.3052825927734 52.62818908691406 200.8658447265625 C 51.35675048828125 204.2549591064453 50.58090209960938 207.7966918945312 50.32218933105469 211.3926696777344 C 49.82736206054688 218.2699279785156 51.22772216796875 225.2481689453125 54.37184143066406 231.5729675292969 C 57.53480529785156 237.9356079101562 62.29248046875 243.3172912597656 68.13059997558594 247.1361083984375 C 71.14625549316406 249.1087188720703 74.41224670410156 250.6354522705078 77.83786010742188 251.6739807128906 C 81.42121887207031 252.7602844238281 85.18016052246094 253.3110961914062 89.01031494140625 253.3110961914062 C 90.74122619628906 253.3110961914062 92.51004028320312 253.1974792480469 94.26760864257812 252.9734191894531 L 147.8147430419922 246.146484375 C 149.5281372070312 245.9280395507812 151.2726898193359 245.8172912597656 152.9999847412109 245.8172912597656 C 154.7272491455078 245.8172912597656 156.4718322753906 245.9280395507812 158.1852569580078 246.146484375 L 211.7323608398438 252.9734191894531 C 213.4897766113281 253.1974792480469 215.2586059570312 253.3110961914062 216.9896545410156 253.3110961914062 C 220.8193664550781 253.3110961914062 224.5779876708984 252.76025390625 228.1611022949219 251.6738739013672 C 231.5864562988281 250.6353149414062 234.8522796630859 249.1084594726562 237.8677978515625 247.1357421875 C 243.7057495117188 243.3166656494141 248.4634246826172 237.9347534179688 251.6264801025391 231.5718383789062 C 254.7706604003906 225.2468872070312 256.1712036132812 218.2686920166016 255.6766967773438 211.3916015625 C 255.4181365966797 207.7957153320312 254.6424255371094 204.2541351318359 253.3711853027344 200.8651885986328 C 252.0355987548828 197.3048095703125 250.1463928222656 193.8989868164062 247.7559814453125 190.7423400878906 L 214.9341583251953 147.3995208740234 C 212.8519592285156 144.6498107910156 211.1217498779297 141.6421051025391 209.7915954589844 138.4598999023438 L 188.9829559326172 88.67778015136719 C 187.35986328125 84.79478454589844 185.2127227783203 81.26557922363281 182.6011657714844 78.18821716308594 C 180.1213073730469 75.26602172851562 177.2230987548828 72.74919128417969 173.9871368408203 70.70765686035156 C 167.7765960693359 66.78952026367188 160.5193634033203 64.71852111816406 152.9999542236328 64.71852111816406 M 152.9999542236328 63.718505859375 C 168.0289001464844 63.718505859375 183.0578308105469 71.90971374511719 189.9056091308594 88.29212951660156 L 210.7142486572266 138.0742492675781 C 212.0128784179688 141.1810150146484 213.6986083984375 144.1114044189453 215.7313690185547 146.7958068847656 L 248.5531921386719 190.1386413574219 C 268.8314208984375 216.9170532226562 249.0455017089844 254.3111114501953 216.9896545410156 254.3111114501953 C 215.2290649414062 254.3111114501953 213.4359283447266 254.1987152099609 211.6058959960938 253.9653930664062 L 158.0587768554688 247.1384582519531 C 154.6998443603516 246.7102203369141 151.3001556396484 246.7102203369141 147.9412231445312 247.1384582519531 L 94.39407348632812 253.9653930664062 C 59.24382019042969 258.4468383789062 36.0548095703125 218.3878173828125 57.44674682617188 190.1386413574219 L 90.26850891113281 146.7958068847656 C 92.30133056640625 144.1114044189453 93.98701477050781 141.1810150146484 95.28562927246094 138.0742492675781 L 116.0943145751953 88.29216003417969 C 122.9420623779297 71.90972900390625 137.9710083007812 63.718505859375 152.9999542236328 63.718505859375 Z" stroke="none" fill="#707070"/>
    </g>
    <g id="Polygon_9" data-name="Polygon 9" transform="translate(1266 3140) rotate(-180)" fill="#366ea2" opacity="0.597">
      <path d="M 219.2106170654297 254.1031799316406 C 217.5055541992188 254.1031799316406 215.7623138427734 253.9911346435547 214.0287017822266 253.7701263427734 L 157.9955902099609 246.6261901855469 C 156.3448486328125 246.4157104492188 154.6641235351562 246.3090057373047 153 246.3090057373047 C 151.3359069824219 246.3090057373047 149.6551513671875 246.4157104492188 148.0044097900391 246.6261596679688 L 91.97132110595703 253.7701263427734 C 90.23788452148438 253.9911193847656 88.49305725097656 254.1031799316406 86.78532409667969 254.1031799316406 C 83.00420379638672 254.1031799316406 79.29285430908203 253.5592803955078 75.75437927246094 252.4865417480469 C 72.37114715576172 251.4608917236328 69.14567565917969 249.9530944824219 66.16758728027344 248.0050659179688 C 60.40482330322266 244.2355041503906 55.70888137817383 238.9240417480469 52.58747100830078 232.6448974609375 C 49.48417663574219 226.4022216796875 48.10208892822266 219.5135345458984 48.59061813354492 212.7235717773438 C 48.84614562988281 209.1720733642578 49.61238098144531 205.6742095947266 50.8680305480957 202.3271484375 C 52.18653106689453 198.8126525878906 54.05094146728516 195.451416015625 56.40950012207031 192.3368377685547 L 90.74373626708984 146.9968872070312 C 92.74970245361328 144.3478546142578 94.41664886474609 141.4501495361328 95.69817352294922 138.38427734375 L 117.4782943725586 86.27789306640625 C 119.0796432495117 82.44683074951172 121.1987075805664 78.96409606933594 123.7766189575195 75.9263916015625 C 126.2257614135742 73.04039001464844 129.0880584716797 70.55474090576172 132.2840270996094 68.5384521484375 C 138.4152679443359 64.67033386230469 145.5787353515625 62.6257438659668 153 62.6257438659668 C 160.4212341308594 62.6257438659668 167.5847015380859 64.67033386230469 173.7159729003906 68.5384521484375 C 176.9119415283203 70.55474090576172 179.7742309570312 73.04039001464844 182.223388671875 75.9263916015625 C 184.8013000488281 78.96409606933594 186.9203491210938 82.44683074951172 188.5217132568359 86.27789306640625 L 210.3018493652344 138.38427734375 C 211.5833587646484 141.4501495361328 213.2502899169922 144.3478546142578 215.2562866210938 146.9968872070312 L 249.5904998779297 192.3368377685547 C 251.94873046875 195.4509735107422 253.8128814697266 198.8117218017578 255.1311492919922 202.3257446289062 C 256.3866271972656 205.6723022460938 257.1527404785156 209.1697082519531 257.4082336425781 212.7207794189453 C 257.8966674804688 219.5097961425781 256.5148620605469 226.3978271484375 253.4121398925781 232.6401824951172 C 250.2908477783203 238.919921875 245.5949401855469 244.2321319580078 239.8320617675781 248.0025634765625 C 236.8539733886719 249.9510040283203 233.6285247802734 251.4592132568359 230.2453308105469 252.4852752685547 C 226.7068786621094 253.5584259033203 222.9956207275391 254.1027679443359 219.2146453857422 254.1031799316406 C 219.2133941650391 254.1031799316406 219.2118682861328 254.1031799316406 219.2106170654297 254.1031799316406 Z" stroke="none"/>
      <path d="M 153 63.12574768066406 C 145.6732940673828 63.12574768066406 138.6020812988281 65.14366149902344 132.5507965087891 68.96133422851562 C 129.3978881835938 70.95048522949219 126.5740661621094 73.4027099609375 124.1578216552734 76.24992370605469 C 121.6132354736328 79.24836730957031 119.5211181640625 82.68714904785156 117.9396209716797 86.47071838378906 L 96.15950012207031 138.5771331787109 C 94.86177062988281 141.6817474365234 93.17373657226562 144.6161041259766 91.14228820800781 147.2987365722656 L 56.80809020996094 192.6386871337891 C 54.47869873046875 195.7147521972656 52.63768005371094 199.0335083007812 51.336181640625 202.5028076171875 C 50.09735107421875 205.8049468994141 49.34140014648438 209.2557678222656 49.08932495117188 212.7594604492188 C 48.60720825195312 219.4603271484375 49.9716796875 226.2596588134766 53.03517150878906 232.4223327636719 C 56.11708068847656 238.6219482421875 60.75282287597656 243.8656921386719 66.44126892089844 247.5866241455078 C 69.37950134277344 249.5086059570312 72.56167602539062 250.9961853027344 75.89938354492188 252.0080413818359 C 79.39079284667969 253.0664825439453 83.05335998535156 253.6031494140625 86.78526306152344 253.6031494140625 C 88.47203063964844 253.6031494140625 90.19558715820312 253.4924468994141 91.90806579589844 253.2740936279297 L 147.9411773681641 246.1301879882812 C 149.6128234863281 245.9170684814453 151.3148498535156 245.8090057373047 153 245.8090057373047 C 154.6851501464844 245.8090057373047 156.3871765136719 245.9170684814453 158.0588226318359 246.1301879882812 L 214.0919189453125 253.2740936279297 C 215.8044128417969 253.4924468994141 217.5279693603516 253.6031494140625 219.2147064208984 253.6031494140625 C 222.9462280273438 253.6031494140625 226.6084442138672 253.0664520263672 230.099609375 252.0079193115234 C 233.4370574951172 250.9960021972656 236.6190795898438 249.5083618164062 239.5572357177734 247.5862731933594 C 245.2454986572266 243.8650970458984 249.8812408447266 238.62109375 252.9632263183594 232.4212341308594 C 256.0268249511719 226.2584228515625 257.3914794921875 219.4591522216797 256.9096069335938 212.7584533691406 C 256.6576843261719 209.2548217773438 255.9019165039062 205.8041229248047 254.6632690429688 202.5021667480469 C 253.3619384765625 199.0330352783203 251.5210876464844 195.7144775390625 249.1919097900391 192.6386871337891 L 214.8576965332031 147.2987365722656 C 212.8262939453125 144.6161499023438 211.1382751464844 141.6818084716797 209.8405303955078 138.5771026611328 L 188.0603790283203 86.47071838378906 C 186.4788818359375 82.68714904785156 184.3867645263672 79.24836730957031 181.8421478271484 76.24992370605469 C 179.4259033203125 73.4027099609375 176.6021118164062 70.95048522949219 173.4491729736328 68.96133422851562 C 167.3978881835938 65.14366149902344 160.3266754150391 63.12574768066406 153 63.12574768066406 M 152.9999847412109 62.12574768066406 C 167.6532135009766 62.12574768066406 182.3064575195312 70.1121826171875 188.9830322265625 86.08506774902344 L 210.76318359375 138.1914520263672 C 212.0293273925781 141.2205657958984 213.6728820800781 144.0776824951172 215.6549072265625 146.6950378417969 L 249.9891204833984 192.0349731445312 C 269.7604370117188 218.1439514160156 250.4691925048828 254.6031494140625 219.2147064208984 254.6031494140625 C 217.4981384277344 254.6031494140625 215.7497253417969 254.4935607910156 213.9654388427734 254.2660675048828 L 157.9323577880859 247.1221618652344 C 154.6573638916016 246.7046203613281 151.3426666259766 246.7046203613281 148.0676422119141 247.1221618652344 L 92.03453063964844 254.2660675048828 C 57.76280212402344 258.635498046875 35.15365600585938 219.5779113769531 56.01087951660156 192.0349731445312 L 90.3450927734375 146.6950378417969 C 92.32708740234375 144.0776824951172 93.97067260742188 141.2205657958984 95.23684692382812 138.1914520263672 L 117.0169677734375 86.08506774902344 C 123.6935272216797 70.1121826171875 138.3467559814453 62.12574768066406 152.9999847412109 62.12574768066406 Z" stroke="none" fill="#707070"/>
    </g>
    <g id="Polygon_8" data-name="Polygon 8" transform="translate(654 2626)" fill="#366ea2" opacity="0.597">
      <path d="M 214.7596588134766 253.5188751220703 C 212.9662933349609 253.5188903808594 211.1326141357422 253.4010009765625 209.3092651367188 253.1685485839844 L 158.2485046386719 246.6586456298828 C 156.5142059326172 246.4375305175781 154.7483520507812 246.3254089355469 153 246.3254089355469 C 151.2516479492188 246.3254089355469 149.4857940673828 246.4375305175781 147.7514953613281 246.6586151123047 L 96.69061279296875 253.1685485839844 C 94.86723327636719 253.4010314941406 93.03185272216797 253.5188751220703 91.23546600341797 253.5188751220703 C 87.25794219970703 253.5188751220703 83.35379028320312 252.9467010498047 79.63143920898438 251.8182678222656 C 76.07234954833984 250.7392883300781 72.67926025390625 249.1531372070312 69.54644012451172 247.1038818359375 C 63.48435211181641 243.1385192871094 58.54452896118164 237.5512390136719 55.2609977722168 230.9459991455078 C 51.99652862548828 224.3791198730469 50.54264450073242 217.1325836181641 51.05652618408203 209.9898223876953 C 51.32532119750977 206.2537384033203 52.13138198852539 202.5741119384766 53.45229339599609 199.0531158447266 C 54.83926391601562 195.3560485839844 56.80046844482422 191.8202667236328 59.28146743774414 188.5439910888672 L 90.59058380126953 147.1986694335938 C 92.69814300537109 144.4155578613281 94.44944000244141 141.3711700439453 95.79585266113281 138.1500854492188 L 115.632942199707 90.69232177734375 C 117.3174362182617 86.66237640380859 119.5465240478516 82.99876403808594 122.2583541870117 79.80329132080078 C 124.8347625732422 76.76731872558594 127.845817565918 74.1524658203125 131.2078857421875 72.03137969970703 C 137.6576385498047 67.96231842041016 145.1932067871094 65.8115234375 152.9998779296875 65.8115234375 C 160.8065490722656 65.8115234375 168.3421173095703 67.96231842041016 174.7918853759766 72.03137969970703 C 178.1539459228516 74.1524658203125 181.1649932861328 76.76731872558594 183.7414398193359 79.80329132080078 C 186.4532318115234 82.99876403808594 188.6823577880859 86.66237640380859 190.3668518066406 90.69232177734375 L 210.2039642333984 138.1500549316406 C 211.5503845214844 141.3711700439453 213.3016815185547 144.4155883789062 215.4092102050781 147.1986999511719 L 246.7183837890625 188.5439605712891 C 249.1990203857422 191.8197631835938 251.1599731445312 195.3550567626953 252.5467376708984 199.0515899658203 C 253.867431640625 202.5720825195312 254.6733856201172 206.2512359619141 254.942138671875 209.9868469238281 C 255.4559631347656 217.1285858154297 254.0023803710938 224.3744049072266 250.7384948730469 230.9409942626953 C 247.4551391601562 237.5468139648438 242.5153198242188 243.1349334716797 236.4530792236328 247.1012268066406 C 233.3202362060547 249.1509094238281 229.9271697998047 250.7375030517578 226.3681182861328 251.8169097900391 C 222.6458282470703 252.9458160400391 218.7417297363281 253.5184631347656 214.7643432617188 253.5188751220703 C 214.7628173828125 253.5188751220703 214.7611846923828 253.5188751220703 214.7596588134766 253.5188751220703 Z" stroke="none"/>
      <path d="M 152.9998779296875 66.3115234375 C 145.2877655029297 66.3115234375 137.8444671630859 68.43563842773438 131.4746704101562 72.45425415039062 C 128.1556091308594 74.54820251464844 125.1830596923828 77.12960815429688 122.6395568847656 80.12678527832031 C 119.9610290527344 83.28305053710938 117.7588806152344 86.90267944335938 116.09423828125 90.88514709472656 L 96.25714111328125 138.3429107666016 C 94.89453125 141.6028442382812 93.12211608886719 144.6839141845703 90.98918151855469 147.5005187988281 L 59.6800537109375 188.8458557128906 C 57.22822570800781 192.0835876464844 55.2904052734375 195.576904296875 53.92041015625 199.2287292480469 C 52.61634826660156 202.7048187255859 51.82058715820312 206.3374328613281 51.55523681640625 210.0256652832031 C 51.0477294921875 217.079345703125 52.48399353027344 224.2364959716797 55.70870971679688 230.7234191894531 C 58.95266723632812 237.2491149902344 63.83232116699219 242.7687072753906 69.82011413574219 246.6854400634766 C 72.91314697265625 248.7086486816406 76.262939453125 250.2745819091797 79.77647399902344 251.3397369384766 C 83.45176696777344 252.4539337158203 87.30711364746094 253.0188751220703 91.2354736328125 253.0188751220703 C 93.01091003417969 253.0188751220703 94.82499694824219 252.90234375 96.62738037109375 252.6725463867188 L 147.6882629394531 246.1626434326172 C 149.4434356689453 245.9388732910156 151.2305908203125 245.8254089355469 153 245.8254089355469 C 154.7693786621094 245.8254089355469 156.5565338134766 245.9388732910156 158.3117370605469 246.1626434326172 L 209.3724975585938 252.6725463867188 C 211.1749877929688 252.90234375 212.9891052246094 253.0188751220703 214.764404296875 253.0188751220703 C 218.6923217773438 253.0188751220703 222.5473480224609 252.4539031982422 226.2223815917969 251.3396453857422 C 229.7356414794922 250.2744140625 233.0852661132812 248.7084045410156 236.1781768798828 246.68505859375 C 242.1657867431641 242.76806640625 247.04541015625 237.2482299804688 250.2895202636719 230.7222595214844 C 253.5142974853516 224.2351989746094 254.9507293701172 217.0780944824219 254.4435272216797 210.0246124267578 C 254.1783142089844 206.3364562988281 253.3827362060547 202.7039642333984 252.078857421875 199.2280578613281 C 250.7090301513672 195.5763854980469 248.7714080810547 192.0832824707031 246.3197937011719 188.8458251953125 L 215.0106201171875 147.5005187988281 C 212.877685546875 144.6839141845703 211.1052856445312 141.6028137207031 209.7426452636719 138.3428802490234 L 189.905517578125 90.88511657714844 C 188.2408752441406 86.90267944335938 186.0386962890625 83.28302001953125 183.3601989746094 80.12678527832031 C 180.8166809082031 77.12960815429688 177.8441162109375 74.54820251464844 174.5250854492188 72.45425415039062 C 168.1552886962891 68.43563842773438 160.7119903564453 66.3115234375 152.9998779296875 66.3115234375 M 152.9998931884766 65.31150817871094 C 168.4045562744141 65.31150817871094 183.8092193603516 73.70750427246094 190.8281707763672 90.49946594238281 L 210.665283203125 137.9572296142578 C 211.9963836669922 141.1417083740234 213.7242126464844 144.1453247070312 215.8078308105469 146.8968200683594 L 247.1170043945312 188.2421112060547 C 267.9021911621094 215.6900024414062 247.6216430664062 254.0188903808594 214.764404296875 254.0188903808594 C 212.9598083496094 254.0188903808594 211.1218109130859 253.9036712646484 209.2460327148438 253.6645202636719 L 158.1852569580078 247.1546173095703 C 154.7423553466797 246.7156677246094 151.2576599121094 246.7156677246094 147.8147277832031 247.1546173095703 L 96.75384521484375 253.6645202636719 C 60.72459411621094 258.2579650878906 36.95611572265625 217.1974945068359 58.88285827636719 188.2421417236328 L 90.19197082519531 146.8968200683594 C 92.27561950683594 144.1453247070312 94.00343322753906 141.1417083740234 95.33450317382812 137.9572601318359 L 115.1715850830078 90.49949645996094 C 122.1905364990234 73.70750427246094 137.59521484375 65.31150817871094 152.9998931884766 65.31150817871094 Z" stroke="none" fill="#707070"/>
    </g>
    <g id="Polygon_10" data-name="Polygon 10" transform="translate(1266 2626)" fill="#366ea2" opacity="0.597">
      <path d="M 80.10920715332031 254.9800262451172 C 76.62273406982422 254.9800262451172 73.20064544677734 254.4784851074219 69.93798828125 253.4893951416016 C 66.81848907470703 252.5436706542969 63.84448623657227 251.1534271240234 61.09854888916016 249.3572692871094 C 55.78479766845703 245.8814239501953 51.45470428466797 240.9837341308594 48.57645416259766 235.1937408447266 C 45.71492385864258 229.4374237060547 44.44051742553711 223.0855255126953 44.89095306396484 216.82470703125 C 45.12654876708984 213.5500793457031 45.83304977416992 210.3249206542969 46.99079895019531 207.2388000488281 C 48.20654678344727 203.9981079101562 49.92573547363281 200.8987121582031 52.10060882568359 198.0266723632812 L 90.97323608398438 146.6933288574219 C 92.82688903808594 144.2455139160156 94.36720275878906 141.5679321289062 95.55136108398438 138.7349548339844 L 120.2461090087891 79.65576934814453 C 121.7227630615234 76.12305450439453 123.6767654418945 72.91158294677734 126.0537948608398 70.11058044433594 C 128.31201171875 67.4495849609375 130.951171875 65.15770721435547 133.8979797363281 63.29861450195312 C 139.5514526367188 59.73192596435547 146.1567687988281 57.84667587280273 152.9998931884766 57.84667587280273 C 159.843017578125 57.84667587280273 166.4483337402344 59.73192596435547 172.1017913818359 63.29861450195312 C 175.0486145019531 65.15770721435547 177.6877593994141 67.4495849609375 179.9459838867188 70.11058044433594 C 182.3230133056641 72.91158294677734 184.2770233154297 76.12305450439453 185.7536773681641 79.65576934814453 L 210.4484558105469 138.7349548339844 C 211.6326141357422 141.5679321289062 213.1729278564453 144.2454833984375 215.026611328125 146.6933288574219 L 253.8992919921875 198.026611328125 C 256.0738525390625 200.8982391357422 257.7927856445312 203.9972076416016 259.0083618164062 207.2374572753906 C 260.1659545898438 210.3231506347656 260.8723754882812 213.5478668212891 261.10791015625 216.8220825195312 C 261.5582885742188 223.0820159912109 260.2841186523438 229.4333343505859 257.4231567382812 235.1893615722656 C 254.5449829101562 240.9798889160156 250.2149200439453 245.8782653808594 244.9010467529297 249.3549194335938 C 242.1551055908203 251.1514892578125 239.1811065673828 252.5421142578125 236.0616455078125 253.4882049560547 C 232.7990112304688 254.4777069091797 229.3770141601562 254.9796142578125 225.8906707763672 254.9799957275391 C 225.8895263671875 254.9799957275391 225.8882598876953 254.9799957275391 225.8871154785156 254.9799957275391 C 224.3148345947266 254.9799957275391 222.7071533203125 254.8766479492188 221.1085510253906 254.6728363037109 L 157.6161346435547 246.5779876708984 C 156.0907592773438 246.383544921875 154.5376739501953 246.2849273681641 152.9999847412109 246.2849273681641 C 151.4622955322266 246.2849273681641 149.9092102050781 246.383544921875 148.3838958740234 246.5779876708984 L 84.891357421875 254.6728668212891 C 83.29289245605469 254.8766784667969 81.68395233154297 254.9800262451172 80.10920715332031 254.9800262451172 Z" stroke="none"/>
      <path d="M 152.9998931884766 58.3466796875 C 146.2513275146484 58.3466796875 139.7382354736328 60.20527648925781 134.1647644042969 63.72148132324219 C 131.260986328125 65.55342102050781 128.6603240966797 67.8118896484375 126.4350128173828 70.43411254882812 C 124.0912628173828 73.19586181640625 122.1642303466797 76.36335754394531 120.7074584960938 79.84858703613281 L 96.01271057128906 138.9277648925781 C 94.81230163574219 141.7995758056641 93.25088500976562 144.5138397216797 91.37185668945312 146.9951782226562 L 52.49923706054688 198.3285217285156 C 50.353515625 201.1620483398438 48.65774536132812 204.218994140625 47.45895385742188 207.4144287109375 C 46.31802368164062 210.4556427001953 45.62179565429688 213.6338043212891 45.3896484375 216.8606109619141 C 44.94561767578125 223.0323333740234 46.202392578125 229.2948608398438 49.02413940429688 234.9711761474609 C 51.86288452148438 240.6816711425781 56.13279724121094 245.5116119384766 61.37223815917969 248.9388275146484 C 64.07832336425781 250.708984375 67.00907897949219 252.0790252685547 70.08302307128906 253.0108947753906 C 73.29861450195312 253.9857330322266 76.67192077636719 254.4800109863281 80.10920715332031 254.4800109863281 C 81.66288757324219 254.4800109863281 83.25057983398438 254.3780212402344 84.82814025878906 254.1768951416016 L 148.3206481933594 246.0820159912109 C 149.8667602539062 245.8848876953125 151.4411468505859 245.7849273681641 152.9999847412109 245.7849273681641 C 154.5588226318359 245.7849273681641 156.1331787109375 245.8848876953125 157.6793670654297 246.0820159912109 L 221.1717681884766 254.1768646240234 C 222.7493286132812 254.3779907226562 224.3370056152344 254.47998046875 225.8907318115234 254.47998046875 C 229.32763671875 254.47998046875 232.7006072998047 253.9856719970703 235.9159851074219 253.0107727050781 C 238.9897155761719 252.0788269042969 241.9202575683594 250.7087097167969 244.6262969970703 248.9384918212891 C 249.8655700683594 245.5110473632812 254.1354217529297 240.6808624267578 256.9743041992188 234.9701538085938 C 259.7961120605469 229.293701171875 261.0530700683594 223.0312042236328 260.6093139648438 216.8596496582031 C 260.3772583007812 213.6329040527344 259.6812133789062 210.4548645019531 258.5404663085938 207.4138031005859 C 257.3418273925781 204.2184906005859 255.6462097167969 201.1617431640625 253.5006713867188 198.3284606933594 L 214.6279907226562 146.9951782226562 C 212.7489318847656 144.5138397216797 211.1875152587891 141.7995452880859 209.9871215820312 138.9277648925781 L 185.2923278808594 79.84858703613281 C 183.8355407714844 76.36335754394531 181.9084777832031 73.19586181640625 179.5647583007812 70.43411254882812 C 177.3394470214844 67.8118896484375 174.7388000488281 65.55342102050781 171.8350219726562 63.72148132324219 C 166.2615203857422 60.20527648925781 159.7484588623047 58.3466796875 152.9998931884766 58.3466796875 M 152.9998931884766 57.34666442871094 C 166.5259399414062 57.34666442871094 180.0519866943359 64.71875 186.2149963378906 79.46292114257812 L 210.9097595214844 138.5421142578125 C 212.0785217285156 141.3381805419922 213.5956726074219 143.9755249023438 215.4252014160156 146.3914947509766 L 254.2978973388672 197.7247619628906 C 272.5482482910156 221.8253173828125 254.7409820556641 255.47998046875 225.8907165527344 255.47998046875 C 224.3061981201172 255.47998046875 222.6923217773438 255.3788146972656 221.0452880859375 255.1688232421875 L 157.5528869628906 247.0739898681641 C 154.5298767089844 246.6885833740234 151.4700927734375 246.6885833740234 148.4471130371094 247.0739898681641 L 84.95460510253906 255.1688690185547 C 53.31941223144531 259.2020874023438 32.44924926757812 223.1490478515625 51.70201110839844 197.7248229980469 L 90.57464599609375 146.3914947509766 C 92.4041748046875 143.9755249023438 93.92129516601562 141.3382110595703 95.09004211425781 138.5421142578125 L 119.7848052978516 79.46292114257812 C 125.9477996826172 64.71875 139.4738464355469 57.34666442871094 152.9998931884766 57.34666442871094 Z" stroke="none" fill="#707070"/>
    </g>
  </g>
</svg>
